# WaveFront *.obj file (generated by CINEMA 4D)

mtllib ./b1.mtl

v -1.05376994609833 1.95882940292358 -0.42086365818977
v -0.70358997583389 1.95882940292358 -0.42086365818977
v -0.70358997583389 2.38614940643311 -0.62969368696213
v -1.05376994609833 2.38614940643311 -0.62969368696213
v -0.00025000001187 -1.58674943447113 1.390456199646
v 0.25023001432419 -1.58674943447113 1.390456199646
v 0.25023001432419 -1.25276148319244 1.390456199646
v -0.00025000001187 -1.25276148319244 1.390456199646
v -0.50515002012253 -1.58674943447113 1.38540363311768
v -0.25404998660088 -1.58674943447113 1.38540363311768
v -0.25404998660088 -1.25193548202515 1.38540363311768
v -0.50515002012253 -1.25193548202515 1.38540363311768
v 1.40536999702454 0.04275538399816 1.38509333133698
v 1.40536999702454 0.04275538399816 -1.42615365982056
v 1.40536999702454 1.97988939285278 -1.42615365982056
v 1.40536999702454 1.97988939285278 1.38509333133698
v -1.40586996078491 0.04275538399816 -1.42615365982056
v -1.40586996078491 1.97988939285278 -1.42615365982056
v -1.40586996078491 1.98022937774658 1.38509333133698
v -1.40586996078491 0.04275538399816 1.38509333133698
v 1.40586996078491 0.04275538399816 1.38509333133698
v 1.40586996078491 1.98022937774658 1.38509333133698
v -1.40586996078491 0.04275538399816 -1.42665362358093
v -1.40586996078491 1.98022937774658 -1.42665362358093
v -1.40586996078491 0.04049047455192 1.38509333133698
v -1.40586996078491 0.04049047455192 -1.42615365982056
v 1.40536999702454 0.04049047455192 -1.42615365982056
v 1.40536999702454 0.04049047455192 1.38509333133698
v 0.23998999595642 0.04049047455192 1.42665362358093
v 0.23998999595642 0.04049047455192 1.390456199646
v 0.00990999955684 0.04049047455192 1.390456199646
v 0.00990999955684 0.04049047455192 1.42665362358093
v -0.26447001099586 0.04049047455192 1.42665362358093
v -0.26447001099586 0.04049047455192 1.38540363311768
v -0.49821001291275 0.04049047455192 1.38540363311768
v -0.49821001291275 0.04049047455192 1.42665362358093
v -1.40586996078491 1.98022937774658 -1.42615365982056
v 0.00990999955684 -1.22081255912781 1.42665362358093
v 0.23998999595642 -1.22081255912781 1.42665362358093
v 1.40536999702454 1.98022937774658 1.38509333133698
v -0.49821001291275 -1.22355055809021 1.42665362358093
v -0.26447001099586 -1.22355055809021 1.42665362358093
v 0.00990999955684 -1.22081255912781 1.390456199646
v 0.23998999595642 -1.22081255912781 1.390456199646
v 1.40536999702454 1.98022937774658 -1.42615365982056
v -1.33442997932434 1.98022937774658 -1.35471367835999
v -1.33442997932434 1.98022937774658 1.31365096569061
v 1.33393001556396 1.98022937774658 1.31365096569061
v 1.33393001556396 1.98022937774658 -1.35471367835999
v -1.33442997932434 2.0814893245697 -1.35471367835999
v 1.33393001556396 2.0814893245697 -1.35471367835999
v -1.33442997932434 2.0814893245697 1.31365096569061
v 1.33393001556396 2.0814893245697 1.31365096569061
v 1.27208995819092 2.0814893245697 -1.29287362098694
v -1.27259004116058 2.0814893245697 -1.29287362098694
v -1.27259004116058 2.0814893245697 1.25180232524872
v 1.27208995819092 2.0814893245697 1.25180232524872
v 1.27208995819092 1.98022937774658 -1.29287362098694
v 1.27208995819092 1.98022937774658 1.25180232524872
v 0.57537001371384 1.98022937774658 -0.59615367650986
v -0.57586997747421 1.98022937774658 -0.59615367650986
v -0.70045000314713 1.98022937774658 -1.07957363128662
v -1.09794998168945 1.98022937774658 -1.07957363128662
v -1.27259004116058 1.98022937774658 -1.29287362098694
v -1.09794998168945 1.98022937774658 -0.37706366181374
v -1.27259004116058 1.98022937774658 1.25180232524872
v -0.57586997747421 1.98022937774658 0.55508631467819
v 0.57537001371384 1.98022937774658 0.55508631467819
v 0.57537001371384 2.08772945404053 -0.59615367650986
v 0.57537001371384 2.08772945404053 0.55508631467819
v -0.57586997747421 2.08772945404053 -0.59615367650986
v -0.57586997747421 2.08772945404053 0.55508631467819
v -0.70045000314713 1.98022937774658 -0.37706366181374
v -0.75976997613907 1.98022937774658 -0.37706366181374
v -1.05376994609833 1.98022937774658 -0.37706366181374
v -1.05376994609833 2.4075493812561 -0.58589363098145
v -0.75976997613907 2.4075493812561 -0.58589363098145
v -0.70045000314713 2.44022941589355 -0.60187363624573
v -1.09794998168945 2.44022941589355 -0.60187363624573
v -0.75976997613907 1.95882940292358 -0.42086365818977
v -0.75976997613907 1.97966933250427 -0.3767936527729
v -1.05376994609833 1.97966933250427 -0.3767936527729
v -0.75976997613907 2.38614940643311 -0.62969368696213
v -0.70045000314713 2.44022941589355 -1.07957363128662
v -1.09794998168945 2.44022941589355 -1.07957363128662
v -0.39798998832703 2.08772945404053 0.47628435492516
v -0.39798998832703 2.08772945404053 0.08378434181213
v -0.04194999858737 2.08772945404053 -0.06221966072917
v -0.04194999858737 2.08772945404053 0.00240634102374
v 0.26826998591423 2.08772945404053 0.08378434181213
v 0.011429999955 2.08772945404053 0.00240634102374
v 0.011429999955 2.08772945404053 -0.06221966072917
v -0.04194999858737 2.96272945404053 -0.06221966072917
v 0.011429999955 2.96272945404053 -0.06221966072917
v -0.04194999858737 2.96272945404053 0.00240634102374
v 0.011429999955 2.96272945404053 0.00240634102374
v 0.32681000232697 2.96272945404053 0.00240634102374
v 0.011429999955 2.96272945404053 -0.06259366124868
v 0.32681000232697 2.96272945404053 -0.06259366124868
v 0.32681000232697 3.21398949623108 0.00240634102374
v -0.04194999858737 3.21398949623108 0.00240634102374
v 0.32681000232697 3.21398949623108 -0.06259366124868
v -0.04194999858737 2.96272945404053 -0.06259366124868
v -0.04194999858737 3.21398949623108 -0.06259366124868
v 0.26826998591423 2.08772945404053 0.47628435492516
v 0.26826998591423 2.3752293586731 0.12696033716202
v -0.39798998832703 2.3752293586731 0.12696033716202
v 0.26826998591423 2.3752293586731 0.08378434181213
v -0.39798998832703 2.3752293586731 0.08378434181213
v -0.49821001291275 -1.22355055809021 1.38540363311768
v -0.26447001099586 -1.22355055809021 1.38540363311768
# 111 vertices

vn 0 0.43906998634338 0.89845287799835
vn 0 -1 0
vn 0 0 1
vn 1 0 0
vn 0 0 -1
vn -1 0 0
vn 0 1 0
vn 0 0.89845287799835 -0.43906998634338
vn 0 -0.89845287799835 0.43906998634338
vn 0 0.77211332321167 0.6354848742485
# 10 normals

vt 0.68571645021439 0.91628032922745 0
vt 0.72589814662933 0.91628032922745 0
vt 0.72589814662933 0.86302661895752 0
vt 0.68571645021439 0.86302661895752 0
vt 0.84055989980698 0.90208542346954 0
vt 0.80437135696411 0.90208542346954 0
vt 0.80437135696411 0.90213203430176 0
vt 0.8164342045784 0.90210092067718 0
vt 0.77632242441177 0.58975166082382 0
vt 0.77632242441177 0.62106436491013 0
vt 0.78244757652283 0.58975166082382 0
vt 0.77836412191391 0.60018926858902 0
vt 0.66932076215744 0.54754817485809 0
vt 0.99189949035645 0.54754817485809 0
vt 0.99189949035645 0.30613744258881 0
vt 0.66932076215744 0.30613744258881 0
vt 0.66932159662247 0.28854191303253 0
vt 0.99189949035645 0.28854191303253 0
vt 0.99189949035645 0.04713118076324 0
vt 0.66932159662247 0.04713118076324 0
vt 0.33048450946808 0.28854191303253 0
vt 0.65311980247498 0.28854191303253 0
vt 0.65311980247498 0.04708874225616 0
vt 0.33048450946808 0.04708874225616 0
vt 0.34687939286232 0.99120223522186 0
vt 0.66951549053192 0.99120223522186 0
vt 0.66951549053192 0.74974912405014 0
vt 0.34687939286232 0.74974912405014 0
vt 0.74916213750839 0.79217731952667 0
vt 0.74911922216415 0.82349002361298 0
vt 0.75657767057419 0.82349002361298 0
vt 0.75657767057419 0.79217731952667 0
vt 0.74911922216415 0.79217731952667 0
vt 0.75285917520523 0.80783367156982 0
vt 0.80876761674881 0.99120223522186 0
vt 0.85108125209808 0.99120223522186 0
vt 0.84495609998703 0.95988953113556 0
vt 0.80876761674881 0.95988953113556 0
vt 0.24905289709568 0.27312755584717 0
vt 0.29466435313225 0.27312755584717 0
vt 0.28785762190819 0.26905488967896 0
vt 0.25412237644196 0.26905488967896 0
vt 0.24905289709568 0.21580111980438 0
vt 0.25412237644196 0.21580111980438 0
vt 0.29466435313225 0.21580111980438 0
vt 0.28785762190819 0.21580111980438 0
vt 0.84055989980698 0.91018587350845 0
vt 0.80437135696411 0.91018587350845 0
vt 0.33067840337753 0.99120223522186 0
vt 0.01629792712629 0.98229920864105 0
vt 0.00810049008578 0.99120223522186 0
vt 0.01356544811279 0.87442064285278 0
vt 0.01629792712629 0.64976054430008 0
vt 0.00810049008578 0.64085721969604 0
vt 0.33067840337753 0.64085721969604 0
vt 0.32248097658157 0.64976054430008 0
vt 0.32248097658157 0.98229920864105 0
vt 0.54050201177597 0.70193880796432 0
vt 0.84668505191803 0.70193880796432 0
vt 0.84668505191803 0.68931955099106 0
vt 0.54050201177597 0.68931955099106 0
vt 0.34687939286232 0.65723168849945 0
vt 0.65306293964386 0.65723168849945 0
vt 0.65306293964386 0.64461237192154 0
vt 0.34687939286232 0.64461237192154 0
vt 0.00810049008578 0.11206138134003 0
vt 0.31428351998329 0.11206138134003 0
vt 0.31428351998329 0.09944212436676 0
vt 0.00810049008578 0.09944212436676 0
vt 0.54050147533417 0.73215359449387 0
vt 0.84668505191803 0.73215359449387 0
vt 0.84668505191803 0.7195343375206 0
vt 0.54050147533417 0.7195343375206 0
vt 0.31428351998329 0.29072296619415 0
vt 0.30718764662743 0.61555504798889 0
vt 0.31428351998329 0.62326169013977 0
vt 0.31191822886467 0.5098465681076 0
vt 0.01519636809826 0.61555504798889 0
vt 0.00810049008578 0.62326169013977 0
vt 0.01519636809826 0.29843080043793 0
vt 0.00810049008578 0.29072296619415 0
vt 0.30718764662743 0.29843080043793 0
vt 0.31629276275635 0.0214170217514 0
vt 0.60828357934952 0.0214170217514 0
vt 0.60828357934952 0.00879776477814 0
vt 0.31629276275635 0.00879776477814 0
vt 0.62247580289841 0.30613744258881 0
vt 0.5425301194191 0.5364345908165 0
vt 0.62247580289841 0.62326169013977 0
vt 0.59582722187042 0.48861122131348 0
vt 0.41043019294739 0.5364345908165 0
vt 0.39613515138626 0.5966796875 0
vt 0.35052371025085 0.5966796875 0
vt 0.33048450946808 0.62326169013977 0
vt 0.35052371025085 0.50913101434708 0
vt 0.33048450946808 0.30613744258881 0
vt 0.41043019294739 0.39296400547028 0
vt 0.00810049008578 0.08184659481049 0
vt 0.30009177327156 0.08184659481049 0
vt 0.30009177327156 0.06922733783722 0
vt 0.00810049008578 0.06922733783722 0
vt 0.00810094829649 0.0214170217514 0
vt 0.30009177327156 0.0214170217514 0
vt 0.30009177327156 0.00879776477814 0
vt 0.00810094829649 0.00879776477814 0
vt 0.00810049008578 0.05163180828094 0
vt 0.30009177327156 0.05163180828094 0
vt 0.30009177327156 0.03901255130768 0
vt 0.00810049008578 0.03901255130768 0
vt 0.5425301194191 0.39296400547028 0
vt 0.16256441175938 0.19820559024811 0
vt 0.29466435313225 0.19820559024811 0
vt 0.29466435313225 0.18480861186981 0
vt 0.16256441175938 0.18480861186981 0
vt 0.68571645021439 0.7745817899704 0
vt 0.8178163766861 0.7745817899704 0
vt 0.8178163766861 0.76118493080139 0
vt 0.68571645021439 0.76118493080139 0
vt 0.16256441175938 0.16721320152283 0
vt 0.29466435313225 0.16721320152283 0
vt 0.29466435313225 0.15381622314453 0
vt 0.16256441175938 0.15381622314453 0
vt 0.39613515138626 0.50913101434708 0
vt 0.38932844996452 0.50913101434708 0
vt 0.35559317469597 0.50913101434708 0
vt 0.77108734846115 0.91361343860626 0
vt 0.74712496995926 0.86035966873169 0
vt 0.7420991063118 0.86302661895752 0
vt 0.76606148481369 0.91628032922745 0
vt 0.16256441175938 0.13622069358826 0
vt 0.19629967212677 0.13622069358826 0
vt 0.19629967212677 0.13076221942902 0
vt 0.16256441175938 0.13076221942902 0
vt 0.35559317469597 0.50909739732742 0
vt 0.38932844996452 0.50909739732742 0
vt 0.75509560108185 0.56514370441437 0
vt 0.73113322257996 0.61839747428894 0
vt 0.73615908622742 0.62106436491013 0
vt 0.76012146472931 0.56781059503555 0
vt 0.24623590707779 0.13076221942902 0
vt 0.21250066161156 0.13076221942902 0
vt 0.21250066161156 0.13622069358826 0
vt 0.24623590707779 0.13622069358826 0
vt 0.68571645021439 0.84543108940125 0
vt 0.71945172548294 0.84543108940125 0
vt 0.71945172548294 0.79217731952667 0
vt 0.68571645021439 0.79217731952667 0
vt 0.4694864153862 0.73215359449387 0
vt 0.52430045604706 0.73215359449387 0
vt 0.52430045604706 0.67482715845108 0
vt 0.44369041919708 0.67482715845108 0
vt 0.68571645021439 0.93387579917908 0
vt 0.68571645021439 0.99120223522186 0
vt 0.73132789134979 0.99120223522186 0
vt 0.73132789134979 0.93387579917908 0
vt 0.42748945951462 0.67482715845108 0
vt 0.34687939286232 0.67482715845108 0
vt 0.34687939286232 0.73215359449387 0
vt 0.40169343352318 0.73215359449387 0
vt 0.71493220329285 0.56514370441437 0
vt 0.66932076215744 0.56514370441437 0
vt 0.66932076215744 0.62467592954636 0
vt 0.71493220329285 0.62467592954636 0
vt 0.71458512544632 0.67172402143478 0
vt 0.84668505191803 0.67172402143478 0
vt 0.84668505191803 0.65832710266113 0
vt 0.71458512544632 0.65832710266113 0
vt 0.1402004212141 0.1296569108963 0
vt 0.00810049008578 0.1296569108963 0
vt 0.02851146832108 0.13947749137878 0
vt 0.0589374601841 0.13293039798737 0
vt 0.00810049008578 0.27312755584717 0
vt 0.02851146832108 0.18839180469513 0
vt 0.1402004212141 0.27312755584717 0
vt 0.06936555355787 0.20658719539642 0
vt 0.06936555355787 0.19853341579437 0
vt 0.10496199131012 0.18839180469513 0
vt 0.07549068331718 0.19853341579437 0
vt 0.07549068331718 0.20658719539642 0
vt 0.84055989980698 0.85879391431808 0
vt 0.84668505191803 0.85879391431808 0
vt 0.84668505191803 0.74974912405014 0
vt 0.84055989980698 0.74974912405014 0
vt 0.64570426940918 0.41518223285675 0
vt 0.65311980247498 0.41518223285675 0
vt 0.65311980247498 0.30613744258881 0
vt 0.64570426940918 0.30613744258881 0
vt 0.86288601160049 0.85879391431808 0
vt 0.86901116371155 0.85879391431808 0
vt 0.86901116371155 0.74974912405014 0
vt 0.86288601160049 0.74974912405014 0
vt 0.64570426940918 0.54182255268097 0
vt 0.65311980247498 0.54182255268097 0
vt 0.65311980247498 0.43277776241302 0
vt 0.64570426940918 0.43277776241302 0
vt 0.84229552745819 0.62106436491013 0
vt 0.84229552745819 0.58975166082382 0
vt 0.83483707904816 0.58975166082382 0
vt 0.83483707904816 0.62106436491013 0
vt 0.65182936191559 0.56751853227615 0
vt 0.65182936191559 0.56747192144394 0
vt 0.64570426940918 0.56747192144394 0
vt 0.64570426940918 0.56751853227615 0
vt 0.80437135696411 0.88448989391327 0
vt 0.84668505191803 0.88448989391327 0
vt 0.84668505191803 0.87638938426971 0
vt 0.80437135696411 0.87638938426971 0
vt 0.65182936191559 0.55941808223724 0
vt 0.64570426940918 0.55941808223724 0
vt 0.10496199131012 0.13947749137878 0
vt 0.02851146832108 0.18301117420197 0
vt 0.10496199131012 0.18301117420197 0
vt 0.78761231899261 0.99120223522186 0
vt 0.7925665974617 0.99120223522186 0
vt 0.7925665974617 0.95537322759628 0
vt 0.7475289106369 0.95537322759628 0
vt 0.15640139579773 0.23729848861694 0
vt 0.15640139579773 0.27312755584717 0
vt 0.23285192251205 0.27312755584717 0
vt 0.23285192251205 0.23729848861694 0
vt 0.8178163766861 0.79217731952667 0
vt 0.7727786898613 0.79217731952667 0
vt 0.7727786898613 0.8280063867569 0
vt 0.77773296833038 0.8280063867569 0
vt 0.81863605976105 0.62106436491013 0
vt 0.81863605976105 0.58975166082382 0
vt 0.85108125209808 0.95988953113556 0
vt 0.82839316129684 0.97554588317871 0
# 228 texture coordinates

o Mesh9_Model
usemtl Mesh9_Model
f 1/4/1 2/3/1 3/2/1 4/1/1
f 97/47/2 96/48/2 94/7/2 98/6/2 99/5/2
f 96/12/3 97/226/3 100/225/3 101/10/3 95/9/3
f 13/16/4 14/15/4 15/14/4 16/13/4
f 14/20/5 17/19/5 18/18/5 15/17/5
f 20/24/3 21/23/3 22/22/3 19/21/3
f 23/28/6 20/27/6 19/26/6 24/25/6
f 95/32/6 101/31/6 104/30/6 103/33/6 93/29/6
f 99/38/5 98/37/5 103/227/5 104/36/5 102/35/5
f 65/43/1 75/44/1 76/42/1 77/41/1 74/46/1 73/45/1 78/40/1 79/39/1
f 37/51/7 46/50/7 45/49/7
f 46/50/7 37/51/7 47/53/7
f 19/54/7 47/53/7 37/51/7
f 47/53/7 19/54/7 40/55/7
f 47/53/7 40/55/7 48/56/7
f 48/56/7 40/55/7 49/57/7
f 45/49/7 49/57/7 40/55/7
f 45/49/7 46/50/7 49/57/7
f 49/61/5 46/60/5 50/59/5 51/58/5
f 46/65/6 47/64/6 52/63/6 50/62/6
f 47/69/3 48/68/3 53/67/3 52/66/3
f 48/73/4 49/72/4 51/71/4 53/70/4
f 51/76/7 54/75/7 53/74/7
f 51/76/7 55/78/7 54/75/7
f 50/79/7 55/78/7 51/76/7
f 55/78/7 50/79/7 56/80/7
f 52/81/7 56/80/7 50/79/7
f 56/80/7 52/81/7 53/74/7
f 56/80/7 53/74/7 57/82/7
f 57/82/7 53/74/7 54/75/7
f 58/86/6 59/85/6 57/84/6 54/83/6
f 58/89/7 60/88/7 59/87/7
f 58/89/7 61/91/7 60/88/7
f 58/89/7 62/92/7 61/91/7
f 58/89/7 63/93/7 62/92/7
f 64/94/7 63/93/7 58/89/7
f 63/93/7 64/94/7 65/95/7
f 66/96/7 65/95/7 64/94/7
f 65/95/7 66/96/7 67/97/7
f 67/97/7 66/96/7 59/87/7
f 59/101/5 66/100/5 56/99/5 57/98/5
f 66/105/4 64/104/4 55/103/4 56/102/4
f 64/109/3 58/108/3 54/107/3 55/106/3
f 67/97/7 59/87/7 68/110/7
f 68/110/7 59/87/7 60/88/7
f 68/114/4 60/113/4 69/112/4 70/111/4
f 60/118/5 61/117/5 71/116/5 69/115/5
f 61/122/6 67/121/6 72/120/6 71/119/6
f 61/91/7 62/92/7 67/97/7
f 73/123/7 67/97/7 62/92/7
f 74/124/7 67/97/7 73/123/7
f 75/125/7 67/97/7 74/124/7
f 65/95/7 67/97/7 75/125/7
f 76/129/4 75/128/4 1/127/4 4/126/4
f 75/133/8 74/132/8 80/131/8 1/130/8
f 81/135/1 74/124/1 75/125/1 82/134/1
f 74/139/6 77/138/6 83/137/6 80/136/6
f 77/143/9 76/142/9 4/141/9 83/140/9
f 1/147/1 80/146/1 83/145/1 4/144/1
f 73/151/4 62/150/4 84/149/4 78/148/4
f 63/155/5 85/154/5 84/153/5 62/152/5
f 79/159/6 85/158/6 63/157/6 65/156/6
f 84/163/7 85/162/7 79/161/7 78/160/7
f 67/167/3 68/166/3 70/165/3 72/164/3
f 86/170/7 72/169/7 70/168/7
f 72/169/7 86/170/7 71/172/7
f 87/173/7 71/172/7 86/170/7
f 71/172/7 87/173/7 69/174/7
f 69/174/7 87/173/7 88/175/7
f 88/175/7 87/173/7 89/176/7
f 90/177/7 89/176/7 87/173/7
f 89/176/7 90/177/7 91/178/7
f 91/178/7 90/177/7 92/179/7
f 69/174/7 92/179/7 90/177/7
f 69/174/7 88/175/7 92/179/7
f 92/183/5 88/182/5 93/181/5 94/180/5
f 88/187/6 89/186/6 95/185/6 93/184/6
f 89/191/3 91/190/3 96/189/3 95/188/3
f 91/195/4 92/194/4 94/193/4 96/192/4
f 100/199/4 97/198/4 99/197/4 102/196/4
f 103/203/7 93/202/7 94/201/7 98/200/7
f 101/207/7 100/206/7 102/205/7 104/204/7
f 95/209/7 96/208/7 94/201/7 93/202/7
f 69/174/7 90/177/7 70/168/7
f 105/210/7 70/168/7 90/177/7
f 86/170/7 70/168/7 105/210/7
f 105/210/10 106/212/10 107/211/10 86/170/10
f 105/216/4 90/215/4 108/214/4 106/213/4
f 87/220/5 109/219/5 108/218/5 90/217/5
f 107/224/6 109/223/6 87/222/6 86/221/6
f 106/212/7 108/177/7 109/173/7 107/211/7

